<?xml version="1.0" encoding="UTF-8"?>
<!DOCTYPE svg PUBLIC "-//W3C//DTD SVG 1.1//EN" "http://www.w3.org/Graphics/SVG/1.1/DTD/svg11.dtd">
<svg xmlns="http://www.w3.org/2000/svg" version="1.1" width="127px" height="60px" style="shape-rendering:geometricPrecision; text-rendering:geometricPrecision; image-rendering:optimizeQuality; fill-rule:evenodd; clip-rule:evenodd" xmlns:xlink="http://www.w3.org/1999/xlink">
<g><path style="opacity:0.981" fill="#f6f9fc" d="M 21.5,-0.5 C 26.5,-0.5 31.5,-0.5 36.5,-0.5C 42.4704,1.93537 48.1371,5.10204 53.5,9C 62.9644,18.2859 71.9644,27.9525 80.5,38C 85.2423,42.2879 90.7423,45.1213 97,46.5C 106.709,44.9573 112.209,39.2906 113.5,29.5C 111.848,17.8425 105.181,12.6758 93.5,14C 88.3666,16.0666 83.6999,18.8999 79.5,22.5C 76.3185,19.1521 73.3185,15.6521 70.5,12C 76.1996,6.78761 82.5329,2.62095 89.5,-0.5C 94.5,-0.5 99.5,-0.5 104.5,-0.5C 115.076,3.07531 122.409,10.0753 126.5,20.5C 126.5,26.8333 126.5,33.1667 126.5,39.5C 122.167,48.5 115.5,55.1667 106.5,59.5C 100.5,59.5 94.5,59.5 88.5,59.5C 82.7673,57.1287 77.4339,53.962 72.5,50C 63.5,40.3333 54.5,30.6667 45.5,21C 40.7912,17.1453 35.4578,14.6453 29.5,13.5C 17.7644,15.0696 12.5977,21.7362 14,33.5C 16.4007,41.3755 21.734,45.7088 30,46.5C 36.1464,44.677 41.6464,41.677 46.5,37.5C 49.6815,40.8479 52.6815,44.3479 55.5,48C 50.2788,53.1072 44.2788,56.9406 37.5,59.5C 31.8333,59.5 26.1667,59.5 20.5,59.5C 10.1017,55.4345 3.10172,48.1012 -0.5,37.5C -0.5,32.1667 -0.5,26.8333 -0.5,21.5C 3.83333,11.1667 11.1667,3.83333 21.5,-0.5 Z"/></g>
</svg>
