<?xml version="1.0" encoding="UTF-8"?>
<svg version="1.1" xmlns="http://www.w3.org/2000/svg" width="127" height="60">
<path d="M0 0 C0.68835937 0.37769531 1.37671875 0.75539063 2.0859375 1.14453125 C12.50682446 7.37072906 20.76469771 17.22539725 28.109375 26.71484375 C34.08165417 33.93340432 40.77660016 38.60638468 49.4375 41.9375 C54.73251243 42.06664664 59.46372602 40.33931578 63.4375 36.875 C66.25333529 31.69386307 67.31587806 27.10585371 66.4375 21.25 C64.51677503 16.90749138 61.99453606 14.44431922 58.1875 11.6875 C53.00032858 10.05724612 48.62874531 10.4374739 43.8125 12.75 C41.32062094 14.11320443 39.40710799 15.48748898 37.1875 17.3125 C36.465625 17.869375 35.74375 18.42625 35 19 C31.65134543 17.88378181 31.28433855 17.32525771 29.4375 14.5 C27.68380605 11.74463406 27.68380605 11.74463406 25 10 C25 9.01 25 8.02 25 7 C27.20262502 5.32791253 29.33951928 3.87537431 31.6875 2.4375 C32.62625977 1.83905273 32.62625977 1.83905273 33.58398438 1.22851562 C41.98169764 -4.03874118 49.18411527 -4.81199465 59 -4 C67.41330187 -1.96668392 74.48439131 3.9692152 79 11.25 C82.68023078 19.39908245 82.64470689 30.47175612 80.11328125 38.98046875 C78.93114588 41.26226492 77.68070976 43.06039302 76 45 C75.46890625 45.64066406 74.9378125 46.28132813 74.390625 46.94140625 C69.60563766 52.19830747 63.92546269 55.97456386 56.703125 56.6015625 C55.21923543 56.64031712 53.7342277 56.64732284 52.25 56.625 C51.46286621 56.6144458 50.67573242 56.6038916 49.86474609 56.59301758 C35.36638892 56.00460541 25.92655983 46.32575409 16.4921875 36.34765625 C13.66215049 33.23461554 10.8969413 30.07867451 8.20703125 26.84375 C2.70193003 20.29305747 -5.06736288 11.99437825 -13.93359375 10.72265625 C-18.66426994 10.49908932 -21.97519263 11.34728605 -26 14 C-30.04520719 18.37319696 -31.37715776 21.79366599 -31.27734375 27.8046875 C-30.78575497 31.69585502 -29.33899239 34.86690526 -27 38 C-24.21587274 40.05893153 -24.21587274 40.05893153 -21 41 C-20.0925 41.309375 -19.185 41.61875 -18.25 41.9375 C-11.06843659 42.07560699 -5.39143619 38.41117507 0 34 C3.34865457 35.11621819 3.71566145 35.67474229 5.5625 38.5 C7.31619395 41.25536594 7.31619395 41.25536594 10 43 C10 43.99 10 44.98 10 46 C7.83984375 47.71875 7.83984375 47.71875 4.9375 49.5 C3.52791016 50.38171875 3.52791016 50.38171875 2.08984375 51.28125 C-4.19146141 54.77527563 -9.1887405 56.56442468 -16.3125 56.5 C-17.05870605 56.49355469 -17.80491211 56.48710938 -18.57373047 56.48046875 C-27.09434442 56.19946781 -32.98103716 53.44113743 -38.875 47.25 C-46.02330626 38.12450265 -47.29049336 29.34035312 -46 18 C-43.64206755 9.73093735 -37.97661987 3.46114624 -31.01171875 -1.3828125 C-21.46398844 -6.52528118 -9.08180358 -5.55778327 0 0 Z " fill="#F4F8FC" transform="translate(46,4)"/>
</svg>
